<svg width="21" height="100" viewBox="0 0 21 100" fill="none" xmlns="http://www.w3.org/2000/svg">
<path d="M0.560006 99.536L0.560006 94.736C0.560006 92.896 0.936006 91.488 1.68801 90.512C2.44001 89.536 3.72801 89.048 5.55201 89.048C6.73601 89.048 7.66401 89.288 8.33601 89.768C8.99201 90.248 9.39201 90.944 9.53601 91.856C9.96801 89.616 11.568 88.496 14.336 88.496C16.208 88.496 17.624 88.952 18.584 89.864C19.528 90.776 20 92.128 20 93.92L20 99.536L0.560006 99.536ZM8.50401 94.784C8.50401 93.76 8.28001 93.064 7.83201 92.696C7.36801 92.312 6.62401 92.12 5.60001 92.12C4.60801 92.12 3.93601 92.368 3.58401 92.864C3.21601 93.344 3.03201 94.152 3.03201 95.288L3.03201 96.008L8.50401 96.008L8.50401 94.784ZM17.504 94.64C17.504 93.6 17.256 92.88 16.76 92.48C16.264 92.08 15.448 91.88 14.312 91.88C13.144 91.88 12.296 92.104 11.768 92.552C11.224 92.984 10.952 93.72 10.952 94.76L10.952 96.008L17.504 96.008L17.504 94.64ZM0.560005 86.1766L0.560005 81.4966C0.560005 79.4486 0.952005 77.9206 1.73601 76.9126C2.50401 75.9046 3.83201 75.4006 5.72001 75.4006C6.95201 75.4006 7.96001 75.5846 8.74401 75.9526C9.51201 76.3046 10.072 76.9206 10.424 77.8006L20 75.0886L20 78.6406L11.096 80.9686L11.096 82.6486L20 82.6486L20 86.1766L0.560005 86.1766ZM8.88801 81.5206C8.88801 80.5126 8.65601 79.8006 8.19201 79.3846C7.72801 78.9526 6.96801 78.7366 5.91201 78.7366C4.88801 78.7366 4.14401 78.9286 3.68001 79.3126C3.21601 79.6806 2.98401 80.3526 2.98401 81.3286L2.98401 82.6486L8.88801 82.6486L8.88801 81.5206ZM0.560005 69.8195L0.560005 66.0275L20 62.1395L20 65.4275L15.512 66.1955L15.512 69.5795L20 70.3715L20 73.7075L0.560005 69.8195ZM13.256 66.5795L5.096 67.8995L13.256 69.2195L13.256 66.5795ZM20.264 55.4999C20.264 57.3399 19.696 58.6679 18.56 59.4839C17.408 60.2839 15.752 60.6839 13.592 60.6839L7.06401 60.6839C4.84001 60.6839 3.16801 60.2679 2.04801 59.4359C0.912005 58.6039 0.344004 57.1719 0.344004 55.1399C0.344004 53.2199 0.824004 51.8439 1.784 51.0119C2.728 50.1799 4.136 49.7639 6.00801 49.7639L7.01601 49.7639L7.01601 53.1479L5.91201 53.1479C5.208 53.1479 4.648 53.1959 4.23201 53.2919C3.81601 53.3719 3.496 53.5559 3.272 53.8439C3.048 54.1159 2.936 54.5319 2.93601 55.0919C2.93601 55.6839 3.08001 56.1239 3.36801 56.4119C3.65601 56.6999 4.02401 56.8919 4.47201 56.9879C4.92001 57.0679 5.50401 57.1079 6.22401 57.1079L14.36 57.1079C15.464 57.1079 16.288 56.9639 16.832 56.6759C17.376 56.3719 17.648 55.8119 17.648 54.9959C17.648 54.1959 17.36 53.6439 16.784 53.3399C16.208 53.0199 15.344 52.8599 14.192 52.8599L12.368 52.8599L12.368 54.9479L10.136 54.9479L10.136 49.6679L20 49.6679L20 51.9719L18.104 52.2119C19.544 52.8199 20.264 53.9159 20.264 55.4999ZM0.560004 44.0617L0.560003 40.2697L20 36.3817L20 39.6697L15.512 40.4377L15.512 43.8217L20 44.6137L20 47.9497L0.560004 44.0617ZM13.256 40.8217L5.096 42.1417L13.256 43.4617L13.256 40.8217ZM0.560003 34.4266L0.560003 31.9546L11.648 27.2266L0.560003 27.2266L0.560003 24.2986L20 24.2986L20 26.6506L8.384 31.4026L20 31.4026L20 34.4266L0.560003 34.4266ZM17.72 21.9965L3.008 16.7885L3.008 21.7325L0.560003 21.7325L0.560002 13.2125L2.384 13.2125L17.576 18.6365L17.576 13.1885L20 13.1885L20 21.9965L17.72 21.9965ZM0.560002 8.24919L0.560002 4.45719L20 0.569185L20 3.85719L15.512 4.62519L15.512 8.00919L20 8.80119L20 12.1372L0.560002 8.24919ZM13.256 5.00919L5.096 6.32919L13.256 7.64919L13.256 5.00919Z" fill="#878787"/>
</svg>
