<svg width="1140" height="373" viewBox="0 0 1140 373" fill="none" xmlns="http://www.w3.org/2000/svg">
<g id="brand-promo">
<g id="one">
<path fill-rule="evenodd" clip-rule="evenodd" d="M188.545 256.713C188.545 270.926 184.484 282.186 176.017 290.079C167.592 297.933 155.848 301.69 141.154 301.69L47.3912 301.69C32.6974 301.69 20.9536 297.933 12.5284 290.079C4.06167 282.186 -1.34476e-06 270.926 -1.966e-06 256.713C-2.58724e-06 242.501 4.06167 231.241 12.5284 223.348C20.9536 215.493 32.6974 211.736 47.3912 211.736L141.154 211.736C155.848 211.736 167.592 215.493 176.017 223.348C184.484 231.241 188.545 242.501 188.545 256.713ZM154.501 247.809C152.217 245.928 148.511 244.77 142.938 244.77L45.6076 244.77C40.0344 244.77 36.3282 245.928 34.0449 247.809C31.8548 249.614 30.5749 252.418 30.5749 256.713C30.5749 261.008 31.8548 263.813 34.0449 265.617C36.3282 267.498 40.0344 268.656 45.6076 268.656L142.938 268.656C148.511 268.656 152.217 267.498 154.501 265.617C156.691 263.813 157.971 261.008 157.971 256.713C157.971 252.418 156.691 249.614 154.501 247.809Z" fill="#EBEBEB"/>
<path d="M0.416606 195.031L0.416604 154.349L93.9729 130.522L0.416603 130.522L0.416602 99.7038L188.966 99.7038L188.966 133.85L71.1101 164.213L188.966 164.213L188.966 195.031L0.416606 195.031Z" fill="#EBEBEB"/>
<path d="M0.416601 83.5745L0.416597 3.04994e-05L31.8414 2.91257e-05L31.8414 49.6223L75.0506 49.6223L75.0506 10.1857L106.475 10.1857L106.475 49.6223L157.541 49.6223L157.541 2.36313e-05L188.966 2.22576e-05L188.966 83.5745L0.416601 83.5745Z" fill="#EBEBEB"/>
</g>
<g id="two">
<path fill-rule="evenodd" clip-rule="evenodd" d="M423.01 40.0512C423.01 52.7071 419.393 62.7339 411.854 69.7627C404.351 76.7571 393.894 80.1024 380.809 80.1024L297.314 80.1024C284.23 80.1024 273.772 76.7571 266.27 69.7627C258.73 62.7339 255.113 52.7071 255.113 40.0512C255.113 27.3954 258.73 17.3686 266.27 10.3397C273.772 3.34534 284.23 2.92449e-05 297.314 2.86729e-05L380.809 2.50232e-05C393.894 2.44513e-05 404.351 3.34533 411.854 10.3397C419.393 17.3686 423.01 27.3953 423.01 40.0512ZM392.694 32.1223C390.66 30.4472 387.36 29.4162 382.397 29.4162L295.726 29.4162C290.763 29.4162 287.463 30.4472 285.43 32.1223C283.48 33.7291 282.34 36.2267 282.34 40.0512C282.34 43.8758 283.48 46.3734 285.43 47.9801C287.463 49.6553 290.763 50.6863 295.726 50.6863L382.397 50.6863C387.36 50.6863 390.66 49.6553 392.694 47.9801C394.644 46.3733 395.784 43.8758 395.784 40.0512C395.784 36.2267 394.644 33.7291 392.694 32.1223Z" fill="#EBEBEB"/>
<path d="M283.468 301.69L255.484 301.69L255.484 217.779L283.468 217.779L283.468 244.584L423.384 244.584L423.384 274.885L283.468 274.885L283.468 301.69Z" fill="#EBEBEB"/>
<path d="M255.484 215.425L255.484 186.01L360.807 176.422L255.484 166.247L255.484 134.044L360.807 123.869L255.484 114.281L255.484 87.4299L423.384 104.452L423.384 140.588L330.92 150.379L423.384 160.169L423.384 198.403L255.484 215.425Z" fill="#EBEBEB"/>
</g>
<g id="shop">
<path d="M507.275 281.353L507.305 281.386C519.404 294.68 537.039 301.019 559.475 301.019C582.188 301.019 600.08 294.541 612.441 280.998C625.004 267.532 630.991 248.504 630.991 224.544C630.991 206.107 627.36 189.835 619.952 175.857C612.572 161.934 599.283 146.77 580.427 130.355C565.914 117.71 556.114 107.18 550.736 98.7347C545.713 90.4221 543.222 81.5354 543.222 72.0006C543.222 63.3692 545.007 57.6514 547.886 54.1408C550.639 50.7837 554.918 48.814 561.507 48.814C567.908 48.814 572.182 50.7858 575.03 54.2474L575.069 54.2943L575.109 54.3401C577.933 57.5718 579.792 63.4073 579.792 72.8142L579.792 91.5261L630.178 91.5261L630.178 75.6617C630.178 52.0199 624.486 33.2774 612.49 20.0745C600.668 6.48928 583.286 2.64218e-05 561.1 2.73915e-05C538.64 2.83733e-05 520.892 6.48846 508.54 20.0221C496.257 33.208 490.398 51.685 490.398 74.8481C490.398 92.0135 494.199 107.614 501.873 121.557L501.891 121.588C509.526 135.177 522.775 150.173 541.346 166.577L541.367 166.595C555.887 179.247 565.517 189.887 570.601 198.539L570.628 198.584C575.61 206.813 578.167 216.503 578.167 227.798C578.167 237.428 576.191 243.552 573.088 247.073L573.077 247.086C570.282 250.283 565.876 252.205 559.069 252.205C552.181 252.205 547.691 250.183 544.812 246.745C541.818 243.169 539.971 237.363 539.971 228.612L539.971 205.019L489.585 205.019L489.585 225.358C489.585 249.027 495.289 267.891 507.275 281.353Z" fill="#EBEBEB"/>
<path d="M707.201 0.665152L652.909 0.665154L652.909 301.69L707.201 301.69L707.201 169.992L748.129 169.992L748.129 301.69L802.422 301.69L802.422 0.665178L748.129 0.66518L748.129 119.821L707.201 119.821L707.201 0.665152Z" fill="#EBEBEB"/>
<path fill-rule="evenodd" clip-rule="evenodd" d="M1067.33 0.665166L995.499 0.66517L995.499 301.69L1049.79 301.69L1049.79 182.534L1067.33 182.534C1090.88 182.534 1109.3 176.195 1121.76 162.808C1134.14 149.5 1140 130.336 1140 106.024L1140 77.1757C1140 52.8636 1134.14 33.6994 1121.76 20.3918C1109.3 7.0051 1090.88 0.665165 1067.33 0.665166ZM1080.98 127.42L1080.93 127.477L1080.88 127.535C1078.31 130.502 1074.1 132.364 1067.33 132.364L1049.79 132.364L1049.79 50.836L1067.33 50.836C1074.1 50.836 1078.31 52.6975 1080.88 55.6647L1080.93 55.7228L1080.98 55.7791C1083.78 58.7799 1085.71 64.5429 1085.71 74.2491L1085.71 108.95C1085.71 118.657 1083.78 124.42 1080.98 127.42Z" fill="#EBEBEB"/>
<path fill-rule="evenodd" clip-rule="evenodd" d="M898.905 301.019C876.214 301.019 858.237 294.535 845.636 281.017C833.095 267.566 827.098 248.817 827.098 225.358L827.098 75.6616C827.098 52.2026 833.095 33.4532 845.636 20.002C858.237 6.48463 876.214 4.4135e-05 898.905 4.31432e-05C921.595 4.21514e-05 939.572 6.48463 952.174 20.002C964.714 33.4532 970.712 52.2026 970.712 75.6616L970.712 225.358C970.712 248.817 964.714 267.566 952.174 281.017C939.572 294.535 921.595 301.019 898.905 301.019ZM913.12 246.665C916.124 243.02 917.972 237.103 917.972 228.205L917.972 72.8142C917.972 63.9163 916.124 57.9993 913.12 54.3539C910.24 50.8573 905.762 48.814 898.905 48.814C892.048 48.814 887.57 50.8573 884.689 54.3539C881.686 57.9993 879.837 63.9163 879.837 72.8142L879.837 228.205C879.837 237.103 881.686 243.02 884.689 246.665C887.57 250.162 892.048 252.205 898.905 252.205C905.762 252.205 910.24 250.162 913.12 246.665Z" fill="#EBEBEB"/>
</g>
<g id="promo">
<path d="M911.928 333.12H934.344V372H927.336V338.16H918.936V372H911.928V333.12Z" fill="#EBEBEB"/>
<path d="M940.194 333.12H951.618C958.242 333.12 961.554 336.8 961.554 344.16C961.554 351.2 958.082 354.72 951.138 354.72H947.25V372H940.194V333.12ZM949.986 349.728C951.906 349.728 953.202 349.328 953.874 348.528C954.546 347.696 954.882 346.224 954.882 344.112C954.882 342.576 954.77 341.408 954.546 340.608C954.322 339.776 953.858 339.152 953.154 338.736C952.482 338.32 951.426 338.112 949.986 338.112H947.25V349.728H949.986Z" fill="#EBEBEB"/>
<path d="M976.114 372.528C972.082 372.528 969.202 371.456 967.474 369.312C965.746 367.136 964.882 363.968 964.882 359.808V345.216C964.882 341.088 965.746 337.968 967.474 335.856C969.202 333.744 972.082 332.688 976.114 332.688C980.114 332.688 982.978 333.744 984.706 335.856C986.434 337.968 987.298 341.088 987.298 345.216V359.808C987.298 363.936 986.418 367.088 984.658 369.264C982.93 371.44 980.082 372.528 976.114 372.528ZM976.114 367.296C977.682 367.296 978.738 366.8 979.282 365.808C979.826 364.816 980.098 363.376 980.098 361.488V343.584C980.098 341.696 979.826 340.272 979.282 339.312C978.77 338.352 977.714 337.872 976.114 337.872C974.514 337.872 973.442 338.368 972.898 339.36C972.354 340.32 972.082 341.728 972.082 343.584V361.488C972.082 363.376 972.354 364.816 972.898 365.808C973.442 366.8 974.514 367.296 976.114 367.296Z" fill="#EBEBEB"/>
<path d="M993.129 333.12H1000.47L1005.99 360.048L1011.7 333.12H1018.86L1019.58 372H1014.3L1013.72 344.976L1008.2 372H1003.93L998.313 344.88L997.785 372H992.457L993.129 333.12Z" fill="#EBEBEB"/>
<path d="M1035.93 372.528C1031.89 372.528 1029.01 371.456 1027.29 369.312C1025.56 367.136 1024.69 363.968 1024.69 359.808V345.216C1024.69 341.088 1025.56 337.968 1027.29 335.856C1029.01 333.744 1031.89 332.688 1035.93 332.688C1039.93 332.688 1042.79 333.744 1044.52 335.856C1046.25 337.968 1047.11 341.088 1047.11 345.216V359.808C1047.11 363.936 1046.23 367.088 1044.47 369.264C1042.74 371.44 1039.89 372.528 1035.93 372.528ZM1035.93 367.296C1037.49 367.296 1038.55 366.8 1039.09 365.808C1039.64 364.816 1039.91 363.376 1039.91 361.488V343.584C1039.91 341.696 1039.64 340.272 1039.09 339.312C1038.58 338.352 1037.53 337.872 1035.93 337.872C1034.33 337.872 1033.25 338.368 1032.71 339.36C1032.17 340.32 1031.89 341.728 1031.89 343.584V361.488C1031.89 363.376 1032.17 364.816 1032.71 365.808C1033.25 366.8 1034.33 367.296 1035.93 367.296Z" fill="#EBEBEB"/>
</g>
</g>
</svg>
